<?xml version="1.0" encoding="UTF-8"?>
<svg width="200" height="200" viewBox="0 0 200 200" xmlns="http://www.w3.org/2000/svg">
    <defs>
        <linearGradient id="carBody" x1="0%" y1="0%" x2="100%" y2="100%">
            <stop offset="0%" style="stop-color:#6495ED"/>
            <stop offset="100%" style="stop-color:#4169E1"/>
        </linearGradient>
        <filter id="shadow">
            <feGaussianBlur in="SourceAlpha" stdDeviation="3"/>
            <feOffset dx="2" dy="2" result="offsetblur"/>
            <feComponentTransfer>
                <feFuncA type="linear" slope="0.5"/>
            </feComponentTransfer>
            <feMerge>
                <feMergeNode/>
                <feMergeNode in="SourceGraphic"/>
            </feMerge>
        </filter>
    </defs>
    <!-- Main Body -->
    <path d="M40 130 Q40 100 70 100 L130 100 Q160 100 160 130 Q160 150 140 150 L60 150 Q40 150 40 130 Z" 
          fill="url(#carBody)" stroke="#4169E1" stroke-width="4" filter="url(#shadow)"/>
    <!-- Roof -->
    <path d="M70 100 Q85 60 115 60 Q130 60 130 100" 
          fill="url(#carBody)" stroke="#4169E1" stroke-width="4"/>
    <!-- Windows -->
    <path d="M75 95 Q85 70 115 70 Q125 70 125 95" 
          fill="#87CEEB" stroke="#4169E1" stroke-width="2"/>
    <!-- Wheels -->
    <g>
        <!-- Left Wheel -->
        <circle cx="70" cy="150" r="20" fill="#333"/>
        <circle cx="70" cy="150" r="12" fill="#DDD"/>
        <circle cx="70" cy="150" r="5" fill="#333"/>
        <!-- Right Wheel -->
        <circle cx="130" cy="150" r="20" fill="#333"/>
        <circle cx="130" cy="150" r="12" fill="#DDD"/>
        <circle cx="130" cy="150" r="5" fill="#333"/>
    </g>
    <!-- Headlights -->
    <circle cx="45" cy="120" r="8" fill="#FFD700"/>
    <circle cx="155" cy="120" r="8" fill="#FFD700"/>
    <!-- Face -->
    <path d="M90 85 Q100 95 110 85" fill="none" stroke="#4169E1" stroke-width="2"/>
    <!-- Sparkles -->
    <g fill="#FFF" opacity="0.6">
        <circle cx="60" cy="80" r="3"/>
        <circle cx="140" cy="80" r="3"/>
        <circle cx="100" cy="70" r="3"/>
    </g>
</svg>