<?xml version="1.0" encoding="UTF-8"?>
<svg width="200" height="200" viewBox="0 0 200 200" xmlns="http://www.w3.org/2000/svg">
    <defs>
        <linearGradient id="catBody" x1="0%" y1="0%" x2="100%" y2="100%">
            <stop offset="0%" style="stop-color:#FFE5EC"/>
            <stop offset="100%" style="stop-color:#FFB6C1"/>
        </linearGradient>
        <filter id="shadow">
            <feGaussianBlur in="SourceAlpha" stdDeviation="3"/>
            <feOffset dx="2" dy="2" result="offsetblur"/>
            <feComponentTransfer>
                <feFuncA type="linear" slope="0.5"/>
            </feComponentTransfer>
            <feMerge>
                <feMergeNode/>
                <feMergeNode in="SourceGraphic"/>
            </feMerge>
        </filter>
    </defs>
    <!-- Main body with gradient -->
    <circle cx="100" cy="115" r="65" fill="url(#catBody)" stroke="#FF69B4" stroke-width="4" filter="url(#shadow)"/>
    <!-- Head -->
    <circle cx="100" cy="80" r="45" fill="url(#catBody)" stroke="#FF69B4" stroke-width="4"/>
    <!-- Ears -->
    <path d="M65 45 Q55 25 75 40" fill="#FFB6C1" stroke="#FF69B4" stroke-width="4" stroke-linecap="round"/>
    <path d="M135 45 Q145 25 125 40" fill="#FFB6C1" stroke="#FF69B4" stroke-width="4" stroke-linecap="round"/>
    <!-- Inner ears -->
    <path d="M68 42 Q63 32 73 40" fill="#FFE4E1" stroke="none"/>
    <path d="M132 42 Q137 32 127 40" fill="#FFE4E1" stroke="none"/>
    <!-- Eyes -->
    <circle cx="80" cy="75" r="12" fill="#FFF"/>
    <circle cx="120" cy="75" r="12" fill="#FFF"/>
    <circle cx="83" cy="75" r="6" fill="#4CAF50"/>
    <circle cx="123" cy="75" r="6" fill="#4CAF50"/>
    <circle cx="84" cy="73" r="3" fill="#FFF"/>
    <circle cx="124" cy="73" r="3" fill="#FFF"/>
    <!-- Nose -->
    <path d="M97 85 L103 85 L100 90 Z" fill="#FF69B4"/>
    <!-- Mouth -->
    <path d="M90 95 Q100 100 110 95" fill="none" stroke="#FF69B4" stroke-width="3" stroke-linecap="round"/>
    <!-- Whiskers -->
    <g stroke="#FF69B4" stroke-width="2">
        <line x1="75" y1="90" x2="45" y2="85"/>
        <line x1="75" y1="95" x2="45" y2="95"/>
        <line x1="75" y1="100" x2="45" y2="105"/>
        <line x1="125" y1="90" x2="155" y2="85"/>
        <line x1="125" y1="95" x2="155" y2="95"/>
        <line x1="125" y1="100" x2="155" y2="105"/>
    </g>
    <!-- Sparkles -->
    <g fill="#FFF" opacity="0.6">
        <circle cx="60" cy="60" r="3"/>
        <circle cx="140" cy="60" r="3"/>
        <circle cx="100" cy="40" r="3"/>
    </g>
</svg>