<svg xmlns="http://www.w3.org/2000/svg" viewBox="0 0 24 24" width="24" height="24">
  <!-- Cat head -->
  <circle cx="12" cy="12" r="8" fill="#FFB6C1" stroke="#000" stroke-width="2"/>
  <!-- Ears -->
  <polygon points="6,7 8,2 10,7" fill="#FFB6C1" stroke="#000" stroke-width="2"/>
  <polygon points="18,7 16,2 14,7" fill="#FFB6C1" stroke="#000" stroke-width="2"/>
  <!-- Eyes -->
  <ellipse cx="9.5" cy="13" rx="1" ry="1.5" fill="#000"/>
  <ellipse cx="14.5" cy="13" rx="1" ry="1.5" fill="#000"/>
  <!-- Nose -->
  <polygon points="12,15 11.5,16 12.5,16" fill="#E75480" stroke="#000" stroke-width="1"/>
  <!-- Mouth -->
  <path d="M12 16 Q11 17 10 16" stroke="#000" stroke-width="1" fill="none"/>
  <path d="M12 16 Q13 17 14 16" stroke="#000" stroke-width="1" fill="none"/>
</svg>
    <!-- Whiskers -->
    <g stroke="#FF69B4" stroke-width="2">
        <line x1="75" y1="90" x2="45" y2="85"/>
        <line x1="75" y1="95" x2="45" y2="95"/>
        <line x1="75" y1="100" x2="45" y2="105"/>
        <line x1="125" y1="90" x2="155" y2="85"/>
        <line x1="125" y1="95" x2="155" y2="95"/>
        <line x1="125" y1="100" x2="155" y2="105"/>
    </g>
    <!-- Sparkles -->
    <g fill="#FFF" opacity="0.6">
        <circle cx="60" cy="60" r="3"/>
        <circle cx="140" cy="60" r="3"/>
        <circle cx="100" cy="40" r="3"/>
    </g>
</svg>