<?xml version="1.0" encoding="UTF-8"?>
<svg width="200" height="200" viewBox="0 0 200 200" xmlns="http://www.w3.org/2000/svg">
    <defs>
        <linearGradient id="dogBody" x1="0%" y1="0%" x2="100%" y2="100%">
            <stop offset="0%" style="stop-color:#FFE4C4"/>
            <stop offset="100%" style="stop-color:#DEB887"/>
        </linearGradient>
        <filter id="shadow">
            <feGaussianBlur in="SourceAlpha" stdDeviation="3"/>
            <feOffset dx="2" dy="2" result="offsetblur"/>
            <feComponentTransfer>
                <feFuncA type="linear" slope="0.5"/>
            </feComponentTransfer>
            <feMerge>
                <feMergeNode/>
                <feMergeNode in="SourceGraphic"/>
            </feMerge>
        </filter>
    </defs>
    <!-- Body -->
    <ellipse cx="100" cy="120" rx="70" ry="50" fill="url(#dogBody)" stroke="#8B4513" stroke-width="4" filter="url(#shadow)"/>
    <!-- Head -->
    <circle cx="100" cy="80" r="45" fill="url(#dogBody)" stroke="#8B4513" stroke-width="4"/>
    <!-- Floppy Ears -->
    <path d="M60 60 Q40 80 65 90" fill="#DEB887" stroke="#8B4513" stroke-width="4" stroke-linecap="round"/>
    <path d="M140 60 Q160 80 135 90" fill="#DEB887" stroke="#8B4513" stroke-width="4" stroke-linecap="round"/>
    <!-- Eyes -->
    <circle cx="80" cy="75" r="12" fill="#FFF"/>
    <circle cx="120" cy="75" r="12" fill="#FFF"/>
    <circle cx="83" cy="75" r="6" fill="#8B4513"/>
    <circle cx="123" cy="75" r="6" fill="#8B4513"/>
    <circle cx="84" cy="73" r="3" fill="#FFF"/>
    <circle cx="124" cy="73" r="3" fill="#FFF"/>
    <!-- Nose -->
    <ellipse cx="100" cy="90" rx="12" ry="8" fill="#8B4513"/>
    <!-- Mouth -->
    <path d="M85 100 Q100 110 115 100" fill="none" stroke="#8B4513" stroke-width="3" stroke-linecap="round"/>
    <!-- Tongue -->
    <path d="M95 105 Q100 115 105 105" fill="#FF69B4" stroke="#FF1493" stroke-width="2"/>
    <!-- Tail (wagging) -->
    <path d="M170 120 Q190 100 180 80" fill="none" stroke="#8B4513" stroke-width="6" stroke-linecap="round">
        <animateTransform
            attributeName="transform"
            attributeType="XML"
            type="rotate"
            from="-5 170 120"
            to="5 170 120"
            dur="0.5s"
            repeatCount="indefinite"
            additive="sum"/>
    </path>
    <!-- Sparkles -->
    <g fill="#FFF" opacity="0.6">
        <circle cx="60" cy="60" r="3"/>
        <circle cx="140" cy="60" r="3"/>
        <circle cx="100" cy="40" r="3"/>
    </g>
</svg>